# xmcd CD database file
# Generated: Fri Dec 5 23:47:45 2003 by KSCD
# 
# Track frame offsets:
#       150
#       13694
#       27331
#       41651
#       52385
#       63003
#       73735
#       85133
#       96582
#       109207
#       117791
#       128361
#       139312
#       150968
#       162798
#       176021
#       186829
#       201240
#       212718
#       225067
#       234996
#       247794
#       263091
#       275819
#       288969
#       303874
#       318019
#
# Disc length: 4393 seconds
#
# Revision: 9
# Processed by: cddbd v1.4PL0 Copyright (c) Steve Scherf et al.
# Submitted via: Kscd 1.3.3
#
DISCID=6f11271b
DTITLE=Nat King Cole - Greatest hits
DYEAR=2002
DGENRE=Jazz
TTITLE0=Route 66
TTITLE1=Could 'ja ?
TTITLE2=The christmas song
TTITLE3=That's what
TTITLE4=When I take my sugar to tea
TTITLE5=The trouble with me is voy
TTITLE6=Too marvelous for words
TTITLE7=Poor butterfly
TTITLE8=I'll never be the same
TTITLE9=Cole capers
TTITLE10=Ke mo ki mo
TTITLE11=My baby likes to be bop
TTITLE12=There's a train out for dreamland
TTITLE13=Nature boy
TTITLE14=Laguna mood
TTITLE15=Little girl
TTITLE16=The geek
TTITLE17=Blue and sentimental
TTITLE18=I've got a way with women
TTITLE19=Lulubelle
TTITLE20=Honey hush
TTITLE21=Don't blame me
TTITLE22=Jack the bellboy
TTITLE23=Hit that jive jack
TTITLE24=Body and soul
TTITLE25=Sweet lorraine
TTITLE26=Honeysuckle rose
EXTD=YEAR: 2002
EXTT0=
EXTT1=
EXTT2=
EXTT3=
EXTT4=
EXTT5=
EXTT6=
EXTT7=
EXTT8=
EXTT9=
EXTT10=
EXTT11=
EXTT12=
EXTT13=
EXTT14=
EXTT15=
EXTT16=
EXTT17=
EXTT18=
EXTT19=
EXTT20=
EXTT21=
EXTT22=
EXTT23=
EXTT24=
EXTT25=
EXTT26=
PLAYORDER=
